<?xml version="1.0" encoding="iso-8859-1"?>
<!-- Uploaded to: SVG Repo, www.svgrepo.com, Generator: SVG Repo Mixer Tools -->
<svg version="1.1" id="Layer_1" xmlns="http://www.w3.org/2000/svg" xmlns:xlink="http://www.w3.org/1999/xlink" 
	 viewBox="0 0 512 512" xml:space="preserve">
<path style="fill:#9197A8;" d="M315.554,14.183c74.346,0,148.693,38.294,148.693,131.886c0,0-21.927-31.528-64.291-51.044
	c-22.466-10.353-50.718-14.892-84.402-14.892V14.183z"/>
<path style="fill:#C0BFD4;" d="M315.554,80.133v36.166c0,16.438-13.332,29.77-29.77,29.77h-5.673h-61h-5.659
	c-16.452,0-29.784-13.332-29.784-29.77v-3.886V47.839v-3.872c0-16.452,13.332-29.784,29.784-29.784h102.102V80.133L315.554,80.133z"
	/>
<path style="fill:#DBB67E;" d="M280.111,245.363v221.961c0,16.835-13.658,30.493-30.493,30.493
	c-16.849,0-30.507-13.658-30.507-30.493V245.363H280.111z"/>
<rect x="219.11" y="146.069" style="fill:#6E5B3F;" width="61" height="99.294"/>
<rect x="128.113" y="47.839" style="fill:#9197A8;" width="55.554" height="64.574"/>
<path style="fill:#C0BFD4;" d="M128.113,47.839v64.574v6.014c0,9.006-7.29,16.296-16.296,16.296H64.05
	c-9.006,0-16.296-7.29-16.296-16.296V41.839c0-9.006,7.29-16.31,16.296-16.31h47.768c9.006,0,16.296,7.304,16.296,16.31V47.839
	L128.113,47.839z"/>
<path d="M426.384,33.754C397.857,11.987,358.496,0,315.554,0H213.452c-20.691,0-38.079,14.373-42.734,33.656h-29.568
	c-3.587-12.847-15.363-22.31-29.332-22.31H64.05c-16.807,0-30.479,13.679-30.479,30.493v76.587
	c0,16.807,13.674,30.479,30.479,30.479h47.768c13.973,0,25.752-9.464,29.334-22.31h29.563c3.994,16.566,17.392,29.503,34.213,32.82
	v71.764H193.95c-7.833,0-14.183,6.35-14.183,14.183c0,7.833,6.35,14.183,14.183,14.183h10.978v207.778
	c0,24.634,20.047,44.676,44.69,44.676c24.634,0,44.676-20.042,44.676-44.676v-88.997c0-7.833-6.35-14.183-14.183-14.183
	s-14.183,6.35-14.183,14.183v88.997c0,8.993-7.317,16.31-16.31,16.31c-9.002,0-16.324-7.317-16.324-16.31V259.546h32.635v33.33
	c0,7.833,6.35,14.183,14.183,14.183s14.183-6.35,14.183-14.183v-33.33h10.992c7.833,0,14.183-6.35,14.183-14.183
	c0-7.833-6.35-14.183-14.183-14.183h-10.992v-71.762c20.176-3.975,35.443-21.795,35.443-43.119V94.624
	c26.247,1.129,47.386,5.496,64.285,13.284c38.04,17.523,58.405,46.009,58.581,46.26c2.702,3.885,7.09,6.086,11.646,6.086
	c1.413,0,2.842-0.211,4.242-0.65c5.914-1.855,9.939-7.335,9.939-13.533C478.429,98.571,460.433,59.732,426.384,33.754z
	 M169.485,98.23h-27.188V62.021h27.188V98.23z M113.931,118.427c0,1.166-0.947,2.113-2.113,2.113H64.05
	c-1.166,0-2.113-0.947-2.113-2.113V41.839c0-1.173,0.947-2.127,2.113-2.127h47.768c1.166,0,2.113,0.955,2.113,2.127L113.931,118.427
	L113.931,118.427z M233.293,231.18v-70.928h32.635v70.928H233.293z M301.371,116.299c0,8.595-6.992,15.587-15.587,15.587h-72.332
	c-8.602,0-15.601-6.992-15.601-15.587v-3.886V47.839v-3.872c0-8.602,6.999-15.601,15.601-15.601h87.919v51.767V116.299z
	 M405.893,82.144c-20.554-9.473-45.569-14.713-76.155-15.922V28.863c49.195,3.478,97.88,25.542,114.409,76.86
	C433.855,97.566,421.092,89.146,405.893,82.144z"/>
<path d="M280.111,315.568c-7.833,0-14.183,6.35-14.183,14.183v4.609c0,7.833,6.35,14.183,14.183,14.183s14.183-6.35,14.183-14.183
	v-4.609C294.294,321.918,287.944,315.568,280.111,315.568z"/>
</svg>