<svg id="visual" viewBox="0 0 900 600" width="900" height="600" xmlns="http://www.w3.org/2000/svg" xmlns:xlink="http://www.w3.org/1999/xlink" version="1.1"><path d="M0 259L25 258.5C50 258 100 257 150 261.8C200 266.7 250 277.3 300 294.5C350 311.7 400 335.3 450 349.5C500 363.7 550 368.3 600 355.3C650 342.3 700 311.7 750 315.2C800 318.7 850 356.3 875 375.2L900 394L900 601L875 601C850 601 800 601 750 601C700 601 650 601 600 601C550 601 500 601 450 601C400 601 350 601 300 601C250 601 200 601 150 601C100 601 50 601 25 601L0 601Z" fill="#d6e1eb"></path><path d="M0 396L25 385.8C50 375.7 100 355.3 150 352.7C200 350 250 365 300 370.5C350 376 400 372 450 365.3C500 358.7 550 349.3 600 349.2C650 349 700 358 750 362.3C800 366.7 850 366.3 875 366.2L900 366L900 601L875 601C850 601 800 601 750 601C700 601 650 601 600 601C550 601 500 601 450 601C400 601 350 601 300 601C250 601 200 601 150 601C100 601 50 601 25 601L0 601Z" fill="#e0e8f0"></path><path d="M0 502L25 496.7C50 491.3 100 480.7 150 476C200 471.3 250 472.7 300 461.5C350 450.3 400 426.7 450 418.2C500 409.7 550 416.3 600 425.5C650 434.7 700 446.3 750 450.7C800 455 850 452 875 450.5L900 449L900 601L875 601C850 601 800 601 750 601C700 601 650 601 600 601C550 601 500 601 450 601C400 601 350 601 300 601C250 601 200 601 150 601C100 601 50 601 25 601L0 601Z" fill="#eaf0f6"></path><path d="M0 557L25 550.3C50 543.7 100 530.3 150 529.2C200 528 250 539 300 544.8C350 550.7 400 551.3 450 540.2C500 529 550 506 600 501C650 496 700 509 750 512.8C800 516.7 850 511.3 875 508.7L900 506L900 601L875 601C850 601 800 601 750 601C700 601 650 601 600 601C550 601 500 601 450 601C400 601 350 601 300 601C250 601 200 601 150 601C100 601 50 601 25 601L0 601Z" fill="#f3f7fb"></path></svg>